REM DIRINDEX 1\2,1\3,1\4
REM DIRNAME folder01,folder02,folder03,folder04
TITLE ""
FILE "DISC2Track01.mp3" MP3
  TRACK 01 AUDIO
    TITLE "0:"
    INDEX 01 00:00:00
  TRACK 02 AUDIO
    TITLE "4:cjc105_1626"
    INDEX 01 00:00:15
  TRACK 03 AUDIO
    TITLE "0:"
    INDEX 01 00:07:17
  TRACK 04 AUDIO
    TITLE "4:cjc105_1627"
    INDEX 01 00:07:66
  TRACK 05 AUDIO
    TITLE "0:"
    INDEX 01 00:11:50
  TRACK 06 AUDIO
    TITLE "2:cjc105_1628"
    INDEX 01 00:12:26
  TRACK 07 AUDIO
    TITLE "3:cjc105_1629"
    INDEX 01 00:14:09
  TRACK 08 AUDIO
    TITLE "0:"
    INDEX 01 00:15:05
  TRACK 09 AUDIO
    TITLE "2:cjc105_1630"
    INDEX 01 00:15:19
  TRACK 10 AUDIO
    TITLE "3:cjc105_1631"
    INDEX 01 00:17:00
  TRACK 11 AUDIO
    TITLE "0:"
    INDEX 01 00:18:35
  TRACK 12 AUDIO
    TITLE "2:cjc105_1632"
    INDEX 01 00:18:50
  TRACK 13 AUDIO
    TITLE "3:cjc105_1633"
    INDEX 01 00:21:33
  TRACK 14 AUDIO
    TITLE "0:"
    INDEX 01 00:22:68
  TRACK 15 AUDIO
    TITLE "2:cjc105_1634"
    INDEX 01 00:23:08
  TRACK 16 AUDIO
    TITLE "3:cjc105_1635"
    INDEX 01 00:24:72
  TRACK 17 AUDIO
    TITLE "0:"
    INDEX 01 00:26:26
  TRACK 18 AUDIO
    TITLE "2:cjc105_1636"
    INDEX 01 00:26:38
  TRACK 19 AUDIO
    TITLE "3:cjc105_1637"
    INDEX 01 00:27:63
  TRACK 20 AUDIO
    TITLE "0:"
    INDEX 01 00:30:50
  TRACK 21 AUDIO
    TITLE "2:cjc105_1638"
    INDEX 01 00:30:63
  TRACK 22 AUDIO
    TITLE "3:cjc105_1639"
    INDEX 01 00:31:67
  TRACK 23 AUDIO
    TITLE "0:"
    INDEX 01 00:33:40
  TRACK 24 AUDIO
    TITLE "2:cjc105_1640"
    INDEX 01 00:33:56
  TRACK 25 AUDIO
    TITLE "3:cjc105_1641"
    INDEX 01 00:34:73
  TRACK 26 AUDIO
    TITLE "0:"
    INDEX 01 00:36:38
  TRACK 27 AUDIO
    TITLE "2:cjc105_1642"
    INDEX 01 00:36:52
  TRACK 28 AUDIO
    TITLE "3:cjc105_1643"
    INDEX 01 00:38:18
  TRACK 29 AUDIO
    TITLE "0:"
    INDEX 01 00:39:31
  TRACK 30 AUDIO
    TITLE "2:cjc105_1644"
    INDEX 01 00:39:47
  TRACK 31 AUDIO
    TITLE "3:cjc105_1645"
    INDEX 01 00:40:56
  TRACK 32 AUDIO
    TITLE "0:"
    INDEX 01 00:42:04
  TRACK 33 AUDIO
    TITLE "2:cjc105_1646"
    INDEX 01 00:42:18
  TRACK 34 AUDIO
    TITLE "3:cjc105_1647"
    INDEX 01 00:43:72
  TRACK 35 AUDIO
    TITLE "0:"
    INDEX 01 00:45:71
  TRACK 36 AUDIO
    TITLE "2:cjc105_1648"
    INDEX 01 00:46:07
  TRACK 37 AUDIO
    TITLE "3:cjc105_1649"
    INDEX 01 00:47:27
  TRACK 38 AUDIO
    TITLE "0:"
    INDEX 01 00:48:71
  TRACK 39 AUDIO
    TITLE "2:cjc105_1650"
    INDEX 01 00:49:08
  TRACK 40 AUDIO
    TITLE "3:cjc105_1651"
    INDEX 01 00:50:39
  TRACK 41 AUDIO
    TITLE "0:"
    INDEX 01 00:52:08
  TRACK 42 AUDIO
    TITLE "2:cjc105_1652"
    INDEX 01 00:52:22
  TRACK 43 AUDIO
    TITLE "3:cjc105_1653"
    INDEX 01 00:53:43
  TRACK 44 AUDIO
    TITLE "0:"
    INDEX 01 00:54:70
  TRACK 45 AUDIO
    TITLE "2:cjc105_1654"
    INDEX 01 00:55:10
  TRACK 46 AUDIO
    TITLE "3:cjc105_1655"
    INDEX 01 00:56:37
  TRACK 47 AUDIO
    TITLE "0:"
    INDEX 01 00:57:68
  TRACK 48 AUDIO
    TITLE "2:cjc105_1656"
    INDEX 01 00:58:05
  TRACK 49 AUDIO
    TITLE "3:cjc105_1657"
    INDEX 01 00:59:57
  TRACK 50 AUDIO
    TITLE "0:"
    INDEX 01 01:01:13
  TRACK 51 AUDIO
    TITLE "2:cjc105_1658"
    INDEX 01 01:01:29
  TRACK 52 AUDIO
    TITLE "3:cjc105_1659"
    INDEX 01 01:02:71
  TRACK 53 AUDIO
    TITLE "0:"
    INDEX 01 01:04:19
  TRACK 54 AUDIO
    TITLE "2:cjc105_1660"
    INDEX 01 01:04:37
  TRACK 55 AUDIO
    TITLE "3:cjc105_1661"
    INDEX 01 01:05:52
  TRACK 56 AUDIO
    TITLE "0:"
    INDEX 01 01:06:65
  TRACK 57 AUDIO
    TITLE "2:cjc105_1662"
    INDEX 01 01:07:04
  TRACK 58 AUDIO
    TITLE "3:cjc105_1663"
    INDEX 01 01:08:56
  TRACK 59 AUDIO
    TITLE "0:"
    INDEX 01 01:10:08
  TRACK 60 AUDIO
    TITLE "2:cjc105_1664"
    INDEX 01 01:10:24
  TRACK 61 AUDIO
    TITLE "3:cjc105_1665"
    INDEX 01 01:11:62
  TRACK 62 AUDIO
    TITLE "0:"
    INDEX 01 01:13:10
  TRACK 63 AUDIO
    TITLE "2:cjc105_1666"
    INDEX 01 01:13:20
  TRACK 64 AUDIO
    TITLE "3:cjc105_1667"
    INDEX 01 01:14:55
  TRACK 65 AUDIO
    TITLE "0:"
    INDEX 01 01:16:16
  TRACK 66 AUDIO
    TITLE "2:cjc105_1668"
    INDEX 01 01:16:26
  TRACK 67 AUDIO
    TITLE "3:cjc105_1669"
    INDEX 01 01:17:59
  TRACK 68 AUDIO
    TITLE "0:"
    INDEX 01 01:19:23
  TRACK 69 AUDIO
    TITLE "2:cjc105_1670"
    INDEX 01 01:19:36
  TRACK 70 AUDIO
    TITLE "3:cjc105_1671"
    INDEX 01 01:20:69
  TRACK 71 AUDIO
    TITLE "0:"
    INDEX 01 01:22:23
  TRACK 72 AUDIO
    TITLE "2:cjc105_1672"
    INDEX 01 01:22:39
  TRACK 73 AUDIO
    TITLE "3:cjc105_1673"
    INDEX 01 01:24:24
  TRACK 74 AUDIO
    TITLE "0:"
    INDEX 01 01:25:64
  TRACK 75 AUDIO
    TITLE "2:cjc105_1674"
    INDEX 01 01:26:01
  TRACK 76 AUDIO
    TITLE "3:cjc105_1675"
    INDEX 01 01:27:63
  TRACK 77 AUDIO
    TITLE "0:"
    INDEX 01 01:29:23
  TRACK 78 AUDIO
    TITLE "2:cjc105_1676"
    INDEX 01 01:29:41
  TRACK 79 AUDIO
    TITLE "3:cjc105_1677"
    INDEX 01 01:31:16
  TRACK 80 AUDIO
    TITLE "0:"
    INDEX 01 01:32:59
  TRACK 81 AUDIO
    TITLE "2:cjc105_1678"
    INDEX 01 01:32:72
  TRACK 82 AUDIO
    TITLE "3:cjc105_1679"
    INDEX 01 01:34:59
  TRACK 83 AUDIO
    TITLE "0:"
    INDEX 01 01:36:00
  TRACK 84 AUDIO
    TITLE "2:cjc105_1680"
    INDEX 01 01:36:11
  TRACK 85 AUDIO
    TITLE "3:cjc105_1681"
    INDEX 01 01:37:46
  TRACK 86 AUDIO
    TITLE "0:"
    INDEX 01 01:39:08
  TRACK 87 AUDIO
    TITLE "2:cjc105_1682"
    INDEX 01 01:39:21
  TRACK 88 AUDIO
    TITLE "3:cjc105_1683"
    INDEX 01 01:40:19
  TRACK 89 AUDIO
    TITLE "0:"
    INDEX 01 01:41:73
  TRACK 90 AUDIO
    TITLE "2:cjc105_1684"
    INDEX 01 01:42:08
  TRACK 91 AUDIO
    TITLE "3:cjc105_1685"
    INDEX 01 01:43:47
  TRACK 92 AUDIO
    TITLE "0:"
    INDEX 01 01:45:10
  TRACK 93 AUDIO
    TITLE "2:cjc105_1686"
    INDEX 01 01:45:26
  TRACK 94 AUDIO
    TITLE "3:cjc105_1687"
    INDEX 01 01:46:39
  TRACK 95 AUDIO
    TITLE "0:"
    INDEX 01 01:47:56
  TRACK 96 AUDIO
    TITLE "2:cjc105_1688"
    INDEX 01 01:47:70
  TRACK 97 AUDIO
    TITLE "3:cjc105_1689"
    INDEX 01 01:49:28
  TRACK 98 AUDIO
    TITLE "0:"
    INDEX 01 01:50:74
  TRACK 99 AUDIO
    TITLE "2:cjc105_1690"
    INDEX 01 01:51:15
  TRACK 100 AUDIO
    TITLE "3:cjc105_1691"
    INDEX 01 01:52:36
  TRACK 101 AUDIO
    TITLE "0:"
    INDEX 01 01:53:74
  TRACK 102 AUDIO
    TITLE "2:cjc105_1692"
    INDEX 01 01:54:13
  TRACK 103 AUDIO
    TITLE "3:cjc105_1693"
    INDEX 01 01:55:30
  TRACK 104 AUDIO
    TITLE "0:"
    INDEX 01 01:56:47
  TRACK 105 AUDIO
    TITLE "2:cjc105_1694"
    INDEX 01 01:56:63
  TRACK 106 AUDIO
    TITLE "3:cjc105_1695"
    INDEX 01 01:57:68
  TRACK 107 AUDIO
    TITLE "0:"
    INDEX 01 01:59:10
  TRACK 108 AUDIO
    TITLE "2:cjc105_1696"
    INDEX 01 01:59:24
  TRACK 109 AUDIO
    TITLE "3:cjc105_1697"
    INDEX 01 02:00:27
  TRACK 110 AUDIO
    TITLE "0:"
    INDEX 01 02:01:41
  TRACK 111 AUDIO
    TITLE "2:cjc105_1698"
    INDEX 01 02:01:52
  TRACK 112 AUDIO
    TITLE "3:cjc105_1699"
    INDEX 01 02:02:71
  TRACK 113 AUDIO
    TITLE "0:"
    INDEX 01 02:05:23
  TRACK 114 AUDIO
    TITLE "2:cjc105_1700"
    INDEX 01 02:05:40
  TRACK 115 AUDIO
    TITLE "3:cjc105_1701"
    INDEX 01 02:07:02
  TRACK 116 AUDIO
    TITLE "0:"
    INDEX 01 02:08:29
  TRACK 117 AUDIO
    TITLE "2:cjc105_1702"
    INDEX 01 02:08:41
  TRACK 118 AUDIO
    TITLE "3:cjc105_1703"
    INDEX 01 02:09:66
  TRACK 119 AUDIO
    TITLE "0:"
    INDEX 01 02:11:23
  TRACK 120 AUDIO
    TITLE "2:cjc105_1704"
    INDEX 01 02:11:35
  TRACK 121 AUDIO
    TITLE "3:cjc105_1705"
    INDEX 01 02:12:36
  TRACK 122 AUDIO
    TITLE "0:"
    INDEX 01 02:13:63
  TRACK 123 AUDIO
    TITLE "2:cjc105_1706"
    INDEX 01 02:13:73
  TRACK 124 AUDIO
    TITLE "3:cjc105_1707"
    INDEX 01 02:15:15
  TRACK 125 AUDIO
    TITLE "0:"
    INDEX 01 02:16:56
  TRACK 126 AUDIO
    TITLE "2:cjc105_1708"
    INDEX 01 02:16:72
  TRACK 127 AUDIO
    TITLE "3:cjc105_1709"
    INDEX 01 02:18:27
  TRACK 128 AUDIO
    TITLE "0:"
    INDEX 01 02:20:01
  TRACK 129 AUDIO
    TITLE "2:cjc105_1710"
    INDEX 01 02:20:16
  TRACK 130 AUDIO
    TITLE "3:cjc105_1711"
    INDEX 01 02:21:35
  TRACK 131 AUDIO
    TITLE "0:"
    INDEX 01 02:22:62
  TRACK 132 AUDIO
    TITLE "2:cjc105_1712"
    INDEX 01 02:23:01
  TRACK 133 AUDIO
    TITLE "3:cjc105_1713"
    INDEX 01 02:24:12
  TRACK 134 AUDIO
    TITLE "0:"
    INDEX 01 02:26:23
  TRACK 135 AUDIO
    TITLE "2:cjc105_1714"
    INDEX 01 02:26:35
  TRACK 136 AUDIO
    TITLE "3:cjc105_1715"
    INDEX 01 02:28:12
  TRACK 137 AUDIO
    TITLE "0:"
    INDEX 01 02:29:47
  TRACK 138 AUDIO
    TITLE "2:cjc105_1716"
    INDEX 01 02:29:60
  TRACK 139 AUDIO
    TITLE "3:cjc105_1717"
    INDEX 01 02:31:24
  TRACK 140 AUDIO
    TITLE "0:"
    INDEX 01 02:32:61
  TRACK 141 AUDIO
    TITLE "2:cjc105_1718"
    INDEX 01 02:32:72
  TRACK 142 AUDIO
    TITLE "3:cjc105_1719"
    INDEX 01 02:34:28
  TRACK 143 AUDIO
    TITLE "0:"
    INDEX 01 02:35:49
  TRACK 144 AUDIO
    TITLE "2:cjc105_1720"
    INDEX 01 02:36:02
  TRACK 145 AUDIO
    TITLE "3:cjc105_1721"
    INDEX 01 02:38:03
  TRACK 146 AUDIO
    TITLE "0:"
    INDEX 01 02:39:61
  TRACK 147 AUDIO
    TITLE "2:cjc105_1722"
    INDEX 01 02:40:07
  TRACK 148 AUDIO
    TITLE "3:cjc105_1723"
    INDEX 01 02:41:28
  TRACK 149 AUDIO
    TITLE "0:"
    INDEX 01 02:42:71
  TRACK 150 AUDIO
    TITLE "2:cjc105_1724"
    INDEX 01 02:43:14
  TRACK 151 AUDIO
    TITLE "3:cjc105_1725"
    INDEX 01 02:44:72
  TRACK 152 AUDIO
    TITLE "0:"
    INDEX 01 02:46:59
  TRACK 153 AUDIO
    TITLE "2:cjc105_1726"
    INDEX 01 02:46:67
  TRACK 154 AUDIO
    TITLE "3:cjc105_1727"
    INDEX 01 02:48:11
  TRACK 155 AUDIO
    TITLE "0:"
    INDEX 01 02:50:37
  TRACK 156 AUDIO
    TITLE "2:cjc105_1728"
    INDEX 01 02:50:53
  TRACK 157 AUDIO
    TITLE "3:cjc105_1729"
    INDEX 01 02:51:72
  TRACK 158 AUDIO
    TITLE "0:"
    INDEX 01 02:53:30
  TRACK 159 AUDIO
    TITLE "2:cjc105_1730"
    INDEX 01 02:53:41
  TRACK 160 AUDIO
    TITLE "3:cjc105_1731"
    INDEX 01 02:54:56
  TRACK 161 AUDIO
    TITLE "0:"
    INDEX 01 02:56:28
  TRACK 162 AUDIO
    TITLE "2:cjc105_1732"
    INDEX 01 02:56:44
  TRACK 163 AUDIO
    TITLE "3:cjc105_1733"
    INDEX 01 02:58:01
  TRACK 164 AUDIO
    TITLE "0:"
    INDEX 01 03:00:04
  TRACK 165 AUDIO
    TITLE "2:cjc105_1734"
    INDEX 01 03:00:18
  TRACK 166 AUDIO
    TITLE "3:cjc105_1735"
    INDEX 01 03:02:19
  TRACK 167 AUDIO
    TITLE "0:"
    INDEX 01 03:03:59
  TRACK 168 AUDIO
    TITLE "2:cjc105_1736"
    INDEX 01 03:04:00
  TRACK 169 AUDIO
    TITLE "3:cjc105_1737"
    INDEX 01 03:06:18
  TRACK 170 AUDIO
    TITLE "0:"
    INDEX 01 03:07:59
  TRACK 171 AUDIO
    TITLE "2:cjc105_1738"
    INDEX 01 03:07:71
  TRACK 172 AUDIO
    TITLE "3:cjc105_1739"
    INDEX 01 03:08:74
  TRACK 173 AUDIO
    TITLE "0:"
    INDEX 01 03:09:74
